<mxfile host="Electron" agent="Mozilla/5.0 (Windows NT 10.0; Win64; x64) AppleWebKit/537.36 (KHTML, like Gecko) draw.io/27.0.9 Chrome/134.0.6998.205 Electron/35.4.0 Safari/537.36" version="27.0.9">
  <diagram name="Page-1" id="KH1f8GEZuJyCPL37nwSk">
    <mxGraphModel dx="1042" dy="634" grid="1" gridSize="10" guides="1" tooltips="1" connect="1" arrows="1" fold="1" page="1" pageScale="1" pageWidth="850" pageHeight="1100" math="0" shadow="0">
      <root>
        <mxCell id="0" />
        <mxCell id="1" parent="0" />
        <mxCell id="wh0r-iCipttjrnU6bUmG-2" value="" style="rounded=0;whiteSpace=wrap;html=1;fillColor=none;strokeColor=#CCCCCC;dashed=1;" parent="1" vertex="1">
          <mxGeometry x="40" y="70" width="170" height="470" as="geometry" />
        </mxCell>
        <mxCell id="wh0r-iCipttjrnU6bUmG-3" value="&lt;font style=&quot;font-size: 24px;&quot;&gt;Data Warehouse&lt;/font&gt;" style="rounded=0;whiteSpace=wrap;html=1;fillColor=default;dashed=1;strokeColor=none;" parent="1" vertex="1">
          <mxGeometry x="452.5" y="50" width="225" height="30" as="geometry" />
        </mxCell>
        <mxCell id="wh0r-iCipttjrnU6bUmG-4" value="" style="rounded=0;whiteSpace=wrap;html=1;fillColor=none;strokeColor=#CCCCCC;dashed=1;" parent="1" vertex="1">
          <mxGeometry x="250" y="70" width="630" height="470" as="geometry" />
        </mxCell>
        <mxCell id="wh0r-iCipttjrnU6bUmG-5" value="&lt;font style=&quot;font-size: 24px;&quot;&gt;Sources&lt;/font&gt;" style="rounded=0;whiteSpace=wrap;html=1;fillColor=default;dashed=1;strokeColor=none;" parent="1" vertex="1">
          <mxGeometry x="65" y="54" width="120" height="30" as="geometry" />
        </mxCell>
        <mxCell id="wh0r-iCipttjrnU6bUmG-6" value="" style="rounded=0;whiteSpace=wrap;html=1;fillColor=none;strokeColor=#CCCCCC;dashed=1;" parent="1" vertex="1">
          <mxGeometry x="920" y="70" width="150" height="470" as="geometry" />
        </mxCell>
        <mxCell id="wh0r-iCipttjrnU6bUmG-7" value="&lt;font style=&quot;font-size: 24px;&quot;&gt;Consume&lt;/font&gt;" style="rounded=0;whiteSpace=wrap;html=1;fillColor=default;dashed=1;strokeColor=none;" parent="1" vertex="1">
          <mxGeometry x="935" y="54" width="120" height="30" as="geometry" />
        </mxCell>
        <mxCell id="wh0r-iCipttjrnU6bUmG-8" value="&lt;font style=&quot;font-size: 24px;&quot;&gt;Bronze Layer&lt;/font&gt;" style="rounded=0;whiteSpace=wrap;html=1;fillColor=#ffe6cc;strokeColor=#d79b00;" parent="1" vertex="1">
          <mxGeometry x="280" y="90" width="150" height="30" as="geometry" />
        </mxCell>
        <mxCell id="wh0r-iCipttjrnU6bUmG-9" value="" style="rounded=0;whiteSpace=wrap;html=1;fillColor=none;strokeColor=#d79b00;" parent="1" vertex="1">
          <mxGeometry x="280" y="125" width="150" height="395" as="geometry" />
        </mxCell>
        <mxCell id="wh0r-iCipttjrnU6bUmG-11" value="&lt;font style=&quot;font-size: 24px;&quot;&gt;Silver&amp;nbsp;&lt;/font&gt;&lt;span style=&quot;font-size: 24px;&quot;&gt;Layer&lt;/span&gt;" style="rounded=0;whiteSpace=wrap;html=1;fillColor=#f5f5f5;strokeColor=#666666;gradientColor=#b3b3b3;" parent="1" vertex="1">
          <mxGeometry x="490" y="90" width="150" height="30" as="geometry" />
        </mxCell>
        <mxCell id="wh0r-iCipttjrnU6bUmG-12" value="" style="rounded=0;whiteSpace=wrap;html=1;fillColor=none;strokeColor=#E6D0DE;" parent="1" vertex="1">
          <mxGeometry x="490" y="125" width="150" height="395" as="geometry" />
        </mxCell>
        <mxCell id="wh0r-iCipttjrnU6bUmG-13" value="&lt;font style=&quot;font-size: 24px;&quot;&gt;Gold&amp;nbsp;&lt;/font&gt;&lt;span style=&quot;font-size: 24px;&quot;&gt;Layer&lt;/span&gt;" style="rounded=0;whiteSpace=wrap;html=1;fillColor=#ffcd28;strokeColor=#d79b00;gradientColor=#ffa500;" parent="1" vertex="1">
          <mxGeometry x="690" y="90" width="150" height="30" as="geometry" />
        </mxCell>
        <mxCell id="wh0r-iCipttjrnU6bUmG-14" value="" style="rounded=0;whiteSpace=wrap;html=1;fillColor=none;strokeColor=#D79B00;gradientColor=#ffa500;" parent="1" vertex="1">
          <mxGeometry x="690" y="125" width="150" height="395" as="geometry" />
        </mxCell>
        <mxCell id="wh0r-iCipttjrnU6bUmG-15" value="CRM" style="image;aspect=fixed;html=1;points=[];align=center;fontSize=12;image=img/lib/azure2/general/Folder_Blank.svg;" parent="1" vertex="1">
          <mxGeometry x="81" y="110" width="69" height="56.00000000000001" as="geometry" />
        </mxCell>
        <mxCell id="wh0r-iCipttjrnU6bUmG-16" value="" style="image;aspect=fixed;html=1;points=[];align=center;fontSize=12;image=img/lib/azure2/general/File.svg;" parent="1" vertex="1">
          <mxGeometry x="125.65" y="140" width="24.35" height="30" as="geometry" />
        </mxCell>
        <mxCell id="wh0r-iCipttjrnU6bUmG-18" value="ERP" style="image;aspect=fixed;html=1;points=[];align=center;fontSize=12;image=img/lib/azure2/general/Folder_Blank.svg;" parent="1" vertex="1">
          <mxGeometry x="81" y="200" width="73.93" height="60" as="geometry" />
        </mxCell>
        <mxCell id="wh0r-iCipttjrnU6bUmG-19" value="" style="image;aspect=fixed;html=1;points=[];align=center;fontSize=12;image=img/lib/azure2/general/File.svg;" parent="1" vertex="1">
          <mxGeometry x="125.65" y="230" width="24.35" height="30" as="geometry" />
        </mxCell>
        <mxCell id="wh0r-iCipttjrnU6bUmG-22" value="" style="endArrow=none;html=1;rounded=0;" parent="1" edge="1">
          <mxGeometry width="50" height="50" relative="1" as="geometry">
            <mxPoint x="60" y="290" as="sourcePoint" />
            <mxPoint x="185.5" y="290" as="targetPoint" />
          </mxGeometry>
        </mxCell>
        <mxCell id="wh0r-iCipttjrnU6bUmG-24" value="Object Type: CSV File&lt;div&gt;&lt;br&gt;&lt;div&gt;Interface: Files in Folder&lt;/div&gt;&lt;/div&gt;" style="text;html=1;align=center;verticalAlign=middle;whiteSpace=wrap;rounded=0;" parent="1" vertex="1">
          <mxGeometry x="50" y="307.5" width="140" height="52.5" as="geometry" />
        </mxCell>
        <mxCell id="wh0r-iCipttjrnU6bUmG-25" value="" style="html=1;verticalLabelPosition=bottom;align=center;labelBackgroundColor=#ffffff;verticalAlign=top;strokeWidth=2;strokeColor=#666666;shadow=0;dashed=0;shape=mxgraph.ios7.icons.data;fillColor=#f5f5f5;gradientColor=#b3b3b3;" parent="1" vertex="1">
          <mxGeometry x="541.5" y="136.45" width="47" height="49.1" as="geometry" />
        </mxCell>
        <mxCell id="wh0r-iCipttjrnU6bUmG-26" value="" style="html=1;verticalLabelPosition=bottom;align=center;labelBackgroundColor=#ffffff;verticalAlign=top;strokeWidth=2;strokeColor=#d79b00;shadow=0;dashed=0;shape=mxgraph.ios7.icons.data;fillColor=#ffe6cc;" parent="1" vertex="1">
          <mxGeometry x="331.5" y="140" width="47" height="49.1" as="geometry" />
        </mxCell>
        <mxCell id="wh0r-iCipttjrnU6bUmG-27" value="" style="html=1;verticalLabelPosition=bottom;align=center;labelBackgroundColor=#ffffff;verticalAlign=top;strokeWidth=2;strokeColor=#d79b00;shadow=0;dashed=0;shape=mxgraph.ios7.icons.data;fillColor=#ffcd28;gradientColor=#ffa500;" parent="1" vertex="1">
          <mxGeometry x="741.5" y="134.45" width="47" height="49.1" as="geometry" />
        </mxCell>
        <mxCell id="wh0r-iCipttjrnU6bUmG-28" value="" style="shape=singleArrow;whiteSpace=wrap;html=1;fillColor=#dae8fc;gradientColor=#7ea6e0;strokeColor=#6c8ebf;" parent="1" vertex="1">
          <mxGeometry x="190" y="236" width="70" height="20" as="geometry" />
        </mxCell>
        <mxCell id="wh0r-iCipttjrnU6bUmG-29" value="" style="shape=singleArrow;whiteSpace=wrap;html=1;fillColor=#dae8fc;gradientColor=#7ea6e0;strokeColor=#6c8ebf;" parent="1" vertex="1">
          <mxGeometry x="425" y="235" width="70" height="20" as="geometry" />
        </mxCell>
        <mxCell id="wh0r-iCipttjrnU6bUmG-30" value="" style="shape=singleArrow;whiteSpace=wrap;html=1;fillColor=#dae8fc;gradientColor=#7ea6e0;strokeColor=#6c8ebf;" parent="1" vertex="1">
          <mxGeometry x="643" y="235" width="70" height="20" as="geometry" />
        </mxCell>
        <mxCell id="wh0r-iCipttjrnU6bUmG-32" value="" style="shape=singleArrow;whiteSpace=wrap;html=1;fillColor=#dae8fc;gradientColor=#7ea6e0;strokeColor=#6c8ebf;" parent="1" vertex="1">
          <mxGeometry x="880" y="236" width="70" height="20" as="geometry" />
        </mxCell>
        <mxCell id="wh0r-iCipttjrnU6bUmG-33" value="&lt;b&gt;Cleaned, Standardized Data&lt;/b&gt;" style="text;html=1;align=center;verticalAlign=middle;whiteSpace=wrap;rounded=0;" parent="1" vertex="1">
          <mxGeometry x="500" y="206.5" width="130" height="30" as="geometry" />
        </mxCell>
        <mxCell id="wh0r-iCipttjrnU6bUmG-34" value="&lt;b&gt;Raw Data&lt;/b&gt;" style="text;html=1;align=center;verticalAlign=middle;whiteSpace=wrap;rounded=0;" parent="1" vertex="1">
          <mxGeometry x="300" y="196.5" width="110" height="30" as="geometry" />
        </mxCell>
        <mxCell id="wh0r-iCipttjrnU6bUmG-35" value="&lt;b&gt;Business Ready Data&lt;/b&gt;" style="text;html=1;align=center;verticalAlign=middle;whiteSpace=wrap;rounded=0;" parent="1" vertex="1">
          <mxGeometry x="700" y="203.5" width="130" height="30" as="geometry" />
        </mxCell>
        <mxCell id="wh0r-iCipttjrnU6bUmG-36" value="" style="endArrow=none;html=1;rounded=0;" parent="1" edge="1">
          <mxGeometry width="50" height="50" relative="1" as="geometry">
            <mxPoint x="292.25" y="242" as="sourcePoint" />
            <mxPoint x="417.75" y="242" as="targetPoint" />
          </mxGeometry>
        </mxCell>
        <mxCell id="wh0r-iCipttjrnU6bUmG-37" value="" style="endArrow=none;html=1;rounded=0;" parent="1" edge="1">
          <mxGeometry width="50" height="50" relative="1" as="geometry">
            <mxPoint x="502.25" y="243" as="sourcePoint" />
            <mxPoint x="627.75" y="243" as="targetPoint" />
          </mxGeometry>
        </mxCell>
        <mxCell id="wh0r-iCipttjrnU6bUmG-38" value="" style="endArrow=none;html=1;rounded=0;" parent="1" edge="1">
          <mxGeometry width="50" height="50" relative="1" as="geometry">
            <mxPoint x="702.25" y="245" as="sourcePoint" />
            <mxPoint x="827.75" y="245" as="targetPoint" />
          </mxGeometry>
        </mxCell>
        <mxCell id="wh0r-iCipttjrnU6bUmG-40" value="&lt;div style=&quot;text-align: left;&quot;&gt;&lt;span style=&quot;background-color: transparent; color: light-dark(rgb(0, 0, 0), rgb(255, 255, 255));&quot;&gt;&lt;span style=&quot;white-space: pre;&quot;&gt;&#x9;&lt;/span&gt;&lt;b&gt;Load&lt;/b&gt;:&lt;/span&gt;&lt;/div&gt;&lt;div&gt;&lt;ul&gt;&lt;li&gt;Batch Processing&lt;/li&gt;&lt;li style=&quot;text-align: left;&quot;&gt;Full Load&lt;/li&gt;&lt;li&gt;Truncate &amp;amp; Insert&lt;/li&gt;&lt;/ul&gt;&lt;/div&gt;" style="text;html=1;align=center;verticalAlign=middle;whiteSpace=wrap;rounded=0;" parent="1" vertex="1">
          <mxGeometry x="270" y="303" width="150" height="30" as="geometry" />
        </mxCell>
        <mxCell id="wh0r-iCipttjrnU6bUmG-41" value="&lt;b&gt;Object Type: &lt;/b&gt;Tables" style="text;html=1;align=center;verticalAlign=middle;whiteSpace=wrap;rounded=0;" parent="1" vertex="1">
          <mxGeometry x="290" y="248" width="120" height="30" as="geometry" />
        </mxCell>
        <mxCell id="wh0r-iCipttjrnU6bUmG-42" value="&lt;b&gt;No Transformations&lt;/b&gt;" style="text;html=1;align=center;verticalAlign=middle;whiteSpace=wrap;rounded=0;" parent="1" vertex="1">
          <mxGeometry x="290" y="351" width="130" height="30" as="geometry" />
        </mxCell>
        <mxCell id="wh0r-iCipttjrnU6bUmG-43" value="&lt;b&gt;Data Model:&lt;/b&gt; None (as-is)" style="text;html=1;align=center;verticalAlign=middle;whiteSpace=wrap;rounded=0;" parent="1" vertex="1">
          <mxGeometry x="280" y="384" width="150" height="30" as="geometry" />
        </mxCell>
        <mxCell id="wh0r-iCipttjrnU6bUmG-48" value="&lt;b&gt;Object Type: &lt;/b&gt;Tables" style="text;html=1;align=center;verticalAlign=middle;whiteSpace=wrap;rounded=0;" parent="1" vertex="1">
          <mxGeometry x="504" y="250" width="122" height="30" as="geometry" />
        </mxCell>
        <mxCell id="wh0r-iCipttjrnU6bUmG-49" value="&lt;b&gt;Load:&lt;/b&gt;&lt;div&gt;&lt;ul&gt;&lt;li&gt;Batch Processing&lt;/li&gt;&lt;li&gt;Full Load&lt;/li&gt;&lt;li&gt;Truncate &amp;amp; Insert&lt;/li&gt;&lt;/ul&gt;&lt;/div&gt;" style="text;html=1;align=left;verticalAlign=middle;whiteSpace=wrap;rounded=0;" parent="1" vertex="1">
          <mxGeometry x="493" y="312" width="150" height="30" as="geometry" />
        </mxCell>
        <mxCell id="wh0r-iCipttjrnU6bUmG-50" value="&lt;b&gt;Transformations&lt;/b&gt;&lt;div&gt;&lt;ul&gt;&lt;li&gt;&lt;font style=&quot;font-size: 10px;&quot;&gt;Data Cleaning&lt;/font&gt;&lt;/li&gt;&lt;li&gt;&lt;font style=&quot;font-size: 10px;&quot;&gt;Data Standardization&lt;/font&gt;&lt;/li&gt;&lt;li&gt;&lt;font style=&quot;font-size: 10px;&quot;&gt;Data Normalization&lt;/font&gt;&lt;/li&gt;&lt;li&gt;&lt;font style=&quot;font-size: 10px;&quot;&gt;Derived Columns&lt;/font&gt;&lt;/li&gt;&lt;li&gt;&lt;font style=&quot;font-size: 10px;&quot;&gt;Data Enrichment&lt;/font&gt;&lt;/li&gt;&lt;/ul&gt;&lt;/div&gt;" style="text;html=1;align=left;verticalAlign=middle;whiteSpace=wrap;rounded=0;" parent="1" vertex="1">
          <mxGeometry x="497" y="376" width="140" height="80" as="geometry" />
        </mxCell>
        <mxCell id="wh0r-iCipttjrnU6bUmG-51" value="&lt;b&gt;Data Model: &lt;/b&gt;None (as-is)" style="text;html=1;align=center;verticalAlign=middle;whiteSpace=wrap;rounded=0;" parent="1" vertex="1">
          <mxGeometry x="495" y="470" width="140" height="30" as="geometry" />
        </mxCell>
        <mxCell id="wh0r-iCipttjrnU6bUmG-52" value="&lt;b&gt;Object Type: &lt;/b&gt;Tables" style="text;html=1;align=center;verticalAlign=middle;whiteSpace=wrap;rounded=0;" parent="1" vertex="1">
          <mxGeometry x="700" y="250" width="122" height="30" as="geometry" />
        </mxCell>
        <mxCell id="wh0r-iCipttjrnU6bUmG-53" value="&lt;b&gt;No Load&lt;/b&gt;" style="text;html=1;align=center;verticalAlign=middle;whiteSpace=wrap;rounded=0;" parent="1" vertex="1">
          <mxGeometry x="695" y="282" width="140" height="30" as="geometry" />
        </mxCell>
        <mxCell id="wh0r-iCipttjrnU6bUmG-54" value="&lt;b&gt;Transformations&lt;/b&gt;&lt;div&gt;&lt;ul&gt;&lt;li&gt;&lt;font style=&quot;font-size: 10px;&quot;&gt;Data Integrations&lt;/font&gt;&lt;/li&gt;&lt;li&gt;&lt;span style=&quot;font-size: 10px;&quot;&gt;Aggregations&lt;/span&gt;&lt;/li&gt;&lt;li&gt;&lt;span style=&quot;font-size: 10px;&quot;&gt;Business Logics&lt;/span&gt;&lt;/li&gt;&lt;/ul&gt;&lt;/div&gt;" style="text;html=1;align=left;verticalAlign=middle;whiteSpace=wrap;rounded=0;" parent="1" vertex="1">
          <mxGeometry x="695" y="326" width="140" height="80" as="geometry" />
        </mxCell>
        <mxCell id="wh0r-iCipttjrnU6bUmG-55" value="&lt;b&gt;Data Model:&lt;/b&gt;&lt;br&gt;&lt;div&gt;&lt;ul&gt;&lt;li&gt;&lt;span style=&quot;font-size: 10px;&quot;&gt;Star Schema&lt;/span&gt;&lt;/li&gt;&lt;li&gt;&lt;span style=&quot;font-size: 10px;&quot;&gt;Flat Table&lt;/span&gt;&lt;/li&gt;&lt;li&gt;&lt;span style=&quot;font-size: 10px;&quot;&gt;Aggregated Table&lt;/span&gt;&lt;/li&gt;&lt;/ul&gt;&lt;/div&gt;" style="text;html=1;align=left;verticalAlign=middle;whiteSpace=wrap;rounded=0;" parent="1" vertex="1">
          <mxGeometry x="700" y="430" width="140" height="80" as="geometry" />
        </mxCell>
        <mxCell id="wh0r-iCipttjrnU6bUmG-56" value="" style="image;aspect=fixed;html=1;points=[];align=center;fontSize=12;image=img/lib/azure2/analytics/Power_BI_Embedded.svg;" parent="1" vertex="1">
          <mxGeometry x="969.5" y="110" width="51" height="68" as="geometry" />
        </mxCell>
        <mxCell id="wh0r-iCipttjrnU6bUmG-57" value="BI &amp;amp; Reporting" style="text;html=1;align=center;verticalAlign=middle;resizable=0;points=[];autosize=1;strokeColor=none;fillColor=none;" parent="1" vertex="1">
          <mxGeometry x="945" y="176.5" width="100" height="30" as="geometry" />
        </mxCell>
        <mxCell id="wh0r-iCipttjrnU6bUmG-58" value="Ad-Hoc&lt;div&gt;SQL Queries&lt;/div&gt;" style="shadow=0;dashed=0;html=1;strokeColor=none;fillColor=#4495D1;labelPosition=center;verticalLabelPosition=bottom;verticalAlign=top;align=center;outlineConnect=0;shape=mxgraph.veeam.magnifying_glass;pointerEvents=1;" parent="1" vertex="1">
          <mxGeometry x="970" y="238" width="55.2" height="54.4" as="geometry" />
        </mxCell>
        <mxCell id="wh0r-iCipttjrnU6bUmG-59" value="" style="editableCssRules=.*;html=1;shape=image;verticalLabelPosition=bottom;labelBackgroundColor=#ffffff;verticalAlign=top;aspect=fixed;imageAspect=0;image=data:image/svg+xml,PHN2ZyB4bWxucz0iaHR0cDovL3d3dy53My5vcmcvMjAwMC9zdmciIHhtbG5zOnY9Imh0dHBzOi8vdmVjdGEuaW8vbmFubyIgd2lkdGg9IjIwIiBoZWlnaHQ9IjE3LjUiIGZpbGwtcnVsZT0iZXZlbm9kZCIgdmlld0JveD0iMCAwIDIwIDE3LjUiPiYjeGE7CTxzdHlsZSB0eXBlPSJ0ZXh0L2NzcyI+JiN4YTsJLnN0MHtmaWxsOiM0Mjg1ZjQ7fSYjeGE7CS5zdDF7ZmlsbDojNjY5ZGY2O30mI3hhOwk8L3N0eWxlPiYjeGE7CTxwYXRoIGNsYXNzPSJzdDAiIGQ9Ik0xOC45MSAxMC42M0wyMCA4Ljc1IDE3LjgyIDVoLTMuMDdsLTEuMDYtMS44NkgxMi41VjEuODhoMS45NGwxLjA2IDEuODdoMS41OUwxNC45IDBoLTQuMjd2NWgxLjczbC43MyAxLjI1aC0yLjQ2djIuNWgyLjI2bDEuMDUtMS44N2gyLjgxbC43MiAxLjI1aC0yLjhMMTMuNjIgMTBoLTIuOTl2NC4zOGgzLjRsLS43MiAxLjI1aC0yLjY4djEuODdoNC4yN2wzLjI4LTUuNjJoLTIuMDlsLS43MyAxLjI1SDEyLjV2LTEuMjVoMi4xNGwuNzQtMS4yNXoiLz4mI3hhOwk8cGF0aCBjbGFzcz0ic3QxIiBkPSJNMS4wOSAxMC42M0wwIDguNzUgMi4xOCA1aDMuMDdsMS4wNi0xLjg2SDcuNVYxLjg4SDUuNTZMNC41IDMuNzVIMi45MUw1LjEgMGg0LjI4djVINy42NGwtLjczIDEuMjVoMi40N3YyLjVINy4xMUw2LjA2IDYuODhIMy4yNWwtLjcyIDEuMjVoMi44TDYuMzggMTBoM3Y0LjM4SDUuOTdsLjcyIDEuMjVoMi42OXYxLjg3SDUuMWwtMy4yOC01LjYyaDIuMDlsLjczIDEuMjVINy41di0xLjI1SDUuMzZsLS43NC0xLjI1eiIvPiYjeGE7PC9zdmc+;" parent="1" vertex="1">
          <mxGeometry x="965.2" y="389" width="56.67" height="51" as="geometry" />
        </mxCell>
        <mxCell id="wh0r-iCipttjrnU6bUmG-60" value="Machine Learning" style="text;html=1;align=center;verticalAlign=middle;resizable=0;points=[];autosize=1;strokeColor=none;fillColor=none;" parent="1" vertex="1">
          <mxGeometry x="933.5400000000001" y="440" width="120" height="30" as="geometry" />
        </mxCell>
      </root>
    </mxGraphModel>
  </diagram>
</mxfile>
